<mxfile host="app.diagrams.net" modified="2021-12-08T04:13:43.163Z" agent="5.0 (Macintosh; Intel Mac OS X 10_15_7) AppleWebKit/537.36 (KHTML, like Gecko) Chrome/96.0.4664.55 Safari/537.36" etag="YbLKeEWpngSJSSZm0dji" version="15.9.1" type="github">
  <diagram id="C5RBs43oDa-KdzZeNtuy" name="Page-1">
    <mxGraphModel dx="767" dy="636" grid="1" gridSize="10" guides="1" tooltips="1" connect="1" arrows="1" fold="1" page="1" pageScale="1" pageWidth="827" pageHeight="1169" math="0" shadow="0">
      <root>
        <mxCell id="WIyWlLk6GJQsqaUBKTNV-0" />
        <mxCell id="WIyWlLk6GJQsqaUBKTNV-1" parent="WIyWlLk6GJQsqaUBKTNV-0" />
        <mxCell id="--9HeMXdxUf7EW4TRPsD-1" value="键位" style="rounded=1;whiteSpace=wrap;html=1;fontSize=12;glass=0;strokeWidth=1;shadow=0;" vertex="1" parent="WIyWlLk6GJQsqaUBKTNV-1">
          <mxGeometry x="160" y="50" width="120" height="40" as="geometry" />
        </mxCell>
        <mxCell id="--9HeMXdxUf7EW4TRPsD-3" value="功能" style="rounded=1;whiteSpace=wrap;html=1;fontSize=12;glass=0;strokeWidth=1;shadow=0;" vertex="1" parent="WIyWlLk6GJQsqaUBKTNV-1">
          <mxGeometry x="160" y="115" width="120" height="40" as="geometry" />
        </mxCell>
        <mxCell id="--9HeMXdxUf7EW4TRPsD-4" value="时机" style="rounded=1;whiteSpace=wrap;html=1;fontSize=12;glass=0;strokeWidth=1;shadow=0;" vertex="1" parent="WIyWlLk6GJQsqaUBKTNV-1">
          <mxGeometry x="160" y="180" width="120" height="40" as="geometry" />
        </mxCell>
        <mxCell id="--9HeMXdxUf7EW4TRPsD-5" value="" style="shape=curlyBracket;whiteSpace=wrap;html=1;rounded=1;" vertex="1" parent="WIyWlLk6GJQsqaUBKTNV-1">
          <mxGeometry x="120" y="75" width="20" height="120" as="geometry" />
        </mxCell>
        <mxCell id="--9HeMXdxUf7EW4TRPsD-6" value="快捷键&lt;br&gt;&lt;font style=&quot;font-size: 16px&quot;&gt;三要素&lt;/font&gt;" style="text;strokeColor=none;fillColor=none;html=1;fontSize=24;fontStyle=1;verticalAlign=middle;align=center;" vertex="1" parent="WIyWlLk6GJQsqaUBKTNV-1">
          <mxGeometry x="20" y="115" width="100" height="40" as="geometry" />
        </mxCell>
        <mxCell id="--9HeMXdxUf7EW4TRPsD-7" value="" style="shape=singleArrow;whiteSpace=wrap;html=1;fontSize=16;arrowWidth=0.43636363636363634;arrowSize=0.5285714285714286;" vertex="1" parent="WIyWlLk6GJQsqaUBKTNV-1">
          <mxGeometry x="310" y="115" width="60" height="42.5" as="geometry" />
        </mxCell>
        <UserObject label="&lt;div&gt;{&amp;nbsp;&lt;/div&gt;&lt;div&gt;&amp;nbsp; &quot;key&quot;: &quot;cmd+alt+.&quot;,&lt;/div&gt;&lt;div&gt;&amp;nbsp; &quot;command&quot;: &quot;painter.toggle_minimode&quot;,&lt;/div&gt;&lt;div&gt;&amp;nbsp; &quot;when&quot;: &quot;PainterFocus&quot;,&lt;/div&gt;&lt;div&gt;}&lt;/div&gt;" treeRoot="1" id="--9HeMXdxUf7EW4TRPsD-8">
          <mxCell style="whiteSpace=wrap;html=1;align=left;treeFolding=1;treeMoving=1;newEdgeStyle={&quot;edgeStyle&quot;:&quot;elbowEdgeStyle&quot;,&quot;startArrow&quot;:&quot;none&quot;,&quot;endArrow&quot;:&quot;none&quot;};fontSize=16;" vertex="1" collapsed="1" parent="WIyWlLk6GJQsqaUBKTNV-1">
            <mxGeometry x="390" y="78.75" width="300" height="115" as="geometry" />
          </mxCell>
        </UserObject>
      </root>
    </mxGraphModel>
  </diagram>
</mxfile>
